<?xml version="1.0" encoding="UTF-8" standalone="no"?>
<!-- Created with Inkscape (http://www.inkscape.org/) -->

<svg
   xmlns:dc="http://purl.org/dc/elements/1.1/"
   xmlns:cc="http://creativecommons.org/ns#"
   xmlns:rdf="http://www.w3.org/1999/02/22-rdf-syntax-ns#"
   xmlns:svg="http://www.w3.org/2000/svg"
   xmlns="http://www.w3.org/2000/svg"
   xmlns:sodipodi="http://sodipodi.sourceforge.net/DTD/sodipodi-0.dtd"
   xmlns:inkscape="http://www.inkscape.org/namespaces/inkscape"
   width="787.5"
   height="787.46875"
   id="svg5025"
   version="1.1"
   inkscape:version="0.91 r13725"
   sodipodi:docname="bottom.svg">
  <defs
     id="defs5027" />
  <sodipodi:namedview
     id="base"
     pagecolor="#ffffff"
     bordercolor="#666666"
     borderopacity="1.0"
     inkscape:pageopacity="0.0"
     inkscape:pageshadow="2"
     inkscape:zoom="1.4142136"
     inkscape:cx="427.02953"
     inkscape:cy="596.48383"
     inkscape:document-units="in"
     inkscape:current-layer="layer1"
     showgrid="true"
     units="in"
     inkscape:window-width="1440"
     inkscape:window-height="838"
     inkscape:window-x="-8"
     inkscape:window-y="-8"
     inkscape:window-maximized="1"
     fit-margin-top="0"
     fit-margin-left="0"
     fit-margin-right="0"
     fit-margin-bottom="0">
    <inkscape:grid
       type="xygrid"
       id="grid5033"
       empspacing="5"
       visible="true"
       enabled="true"
       snapvisiblegridlinesonly="true"
       units="in"
       spacingx="0.01in"
       spacingy="0.01in" />
  </sodipodi:namedview>
  <metadata
     id="metadata5030">
    <rdf:RDF>
      <cc:Work
         rdf:about="">
        <dc:format>image/svg+xml</dc:format>
        <dc:type
           rdf:resource="http://purl.org/dc/dcmitype/StillImage" />
        <dc:title />
      </cc:Work>
    </rdf:RDF>
  </metadata>
  <g
     inkscape:label="Layer 1"
     inkscape:groupmode="layer"
     id="layer1"
     transform="translate(0,-264.875)">
    <path
       style="fill:none;stroke:#000000;stroke-width:0.09326816;stroke-miterlimit:4;stroke-opacity:1"
       d="m 105.66758,957.32082 c 0,3.2954 -2.67083,5.9663 -5.965476,5.9663 -3.294638,0 -5.96547,-2.6709 -5.96547,-5.9663 0,-3.2948 2.670832,-5.9664 5.96547,-5.9664 3.294646,0 5.965476,2.6716 5.965476,5.9664 z"
       id="path5035"
       inkscape:connector-curvature="0" />
    <path
       style="fill:none;stroke:#000000;stroke-width:0.09326816;stroke-miterlimit:4;stroke-opacity:1"
       d="m 693.81758,957.32082 c 0,3.2954 -2.67083,5.9663 -5.96548,5.9663 -3.29464,0 -5.96547,-2.6709 -5.96547,-5.9663 0,-3.2948 2.67083,-5.9664 5.96547,-5.9664 3.29465,0 5.96548,2.6716 5.96548,5.9664 z"
       id="path5035-5"
       inkscape:connector-curvature="0" />
    <path
       style="fill:none;stroke:#000000;stroke-width:0.09326816;stroke-miterlimit:4;stroke-opacity:1"
       d="m 105.66758,347.84101 c 0,3.2954 -2.67083,5.96633 -5.965476,5.96633 -3.294638,0 -5.96547,-2.67093 -5.96547,-5.96633 0,-3.29475 2.670832,-5.96634 5.96547,-5.96634 3.294646,0 5.965476,2.67159 5.965476,5.96634 z"
       id="path5035-2"
       inkscape:connector-curvature="0" />
    <path
       style="fill:none;stroke:#000000;stroke-width:0.09326816;stroke-miterlimit:4;stroke-opacity:1"
       d="m 693.81758,347.84101 c 0,3.2954 -2.67083,5.96633 -5.96548,5.96633 -3.29464,0 -5.96547,-2.67093 -5.96547,-5.96633 0,-3.29475 2.67083,-5.96634 5.96547,-5.96634 3.29465,0 5.96548,2.67159 5.96548,5.96634 z"
       id="path5035-5-7"
       inkscape:connector-curvature="0" />
    <path
       transform="matrix(0.21346297,0,0,0.21327331,12.04786,838.22235)"
       style="fill:none;stroke:#000000;stroke-width:0.42180622;stroke-miterlimit:4;stroke-opacity:1"
       d="m 75.660425,898.57428 c 0,14.74229 -11.950989,26.69328 -26.693281,26.69328 -14.742292,0 -26.693281,-11.95099 -26.693281,-26.69328 0,-14.74229 11.950989,-26.69328 26.693281,-26.69328 14.742292,0 26.693281,11.95099 26.693281,26.69328 z"
       id="path3832" />
    <path
       transform="matrix(0.21346297,0,0,0.21327331,754.54786,95.722403)"
       style="fill:none;stroke:#000000;stroke-width:0.42180622;stroke-miterlimit:4;stroke-opacity:1"
       d="m 75.660425,898.57428 c 0,14.74229 -11.950989,26.69328 -26.693281,26.69328 -14.742292,0 -26.693281,-11.95099 -26.693281,-26.69328 0,-14.74229 11.950989,-26.69328 26.693281,-26.69328 14.742292,0 26.693281,11.95099 26.693281,26.69328 z"
       id="path3832-4" />
    <path
       transform="matrix(0.21346297,0,0,0.21327331,12.04786,95.722403)"
       style="fill:none;stroke:#000000;stroke-width:0.42180622;stroke-miterlimit:4;stroke-opacity:1"
       d="m 75.660425,898.57428 c 0,14.74229 -11.950989,26.69328 -26.693281,26.69328 -14.742292,0 -26.693281,-11.95099 -26.693281,-26.69328 0,-14.74229 11.950989,-26.69328 26.693281,-26.69328 14.742292,0 26.693281,11.95099 26.693281,26.69328 z"
       id="path3832-0" />
    <path
       transform="matrix(0.21346297,0,0,0.21327331,754.54786,838.22235)"
       style="fill:none;stroke:#000000;stroke-width:0.42180622;stroke-miterlimit:4;stroke-opacity:1"
       d="m 75.660425,898.57428 c 0,14.74229 -11.950989,26.69328 -26.693281,26.69328 -14.742292,0 -26.693281,-11.95099 -26.693281,-26.69328 0,-14.74229 11.950989,-26.69328 26.693281,-26.69328 14.742292,0 26.693281,11.95099 26.693281,26.69328 z"
       id="path3832-4-9" />
    <path
       style="fill:none;stroke:#000000;stroke-width:0.11336695;stroke-miterlimit:4;stroke-opacity:1"
       d="m 0.87733585,264.94 785.74551415,0 c 0.45142,0 0.81483,0.36342 0.81483,0.81484 l 0,785.72756 c 0,0.4514 -0.36341,0.8148 -0.81483,0.8148 l -785.74551415,0 c -0.45141906,0 -0.81483585,-0.3634 -0.81483585,-0.8148 l 0,-785.72756 c 0,-0.45142 0.36341679,-0.81484 0.81483585,-0.81484 z"
       id="rect3972" />
    <path
       style="fill:none;stroke:#000000;stroke-width:0.16995019;stroke-miterlimit:4;stroke-opacity:1"
       d="m 112.58498,444.94473 269.83004,0 0,179.83005 -269.83004,0 z"
       id="rect2992" />
    <path
       inkscape:connector-curvature="0"
       style="fill:none;stroke:#000000;stroke-width:0.09;stroke-miterlimit:4;stroke-opacity:1"
       d="m 95.68105,287.36578 c 0,3.14414 -2.55109,5.69297 -5.69803,5.69297 -3.14693,0 -5.69802,-2.54883 -5.69802,-5.69297 0,-3.14413 2.55109,-5.69296 5.69802,-5.69296 3.14694,0 5.69803,2.54883 5.69803,5.69296 z"
       id="path3832-0-3" />
    <path
       inkscape:connector-curvature="0"
       style="fill:none;stroke:#000000;stroke-width:0.09;stroke-miterlimit:4;stroke-opacity:1"
       d="m 714.70105,287.36578 c 0,3.14414 -2.55109,5.69297 -5.69803,5.69297 -3.14693,0 -5.69802,-2.54883 -5.69802,-5.69297 0,-3.14413 2.55109,-5.69296 5.69802,-5.69296 3.14694,0 5.69803,2.54883 5.69803,5.69296 z"
       id="path3832-0-3-7" />
  </g>
</svg>
