<?xml version="1.0" encoding="UTF-8" standalone="no"?>
<!-- Created with Inkscape (http://www.inkscape.org/) -->

<svg
   xmlns:dc="http://purl.org/dc/elements/1.1/"
   xmlns:cc="http://creativecommons.org/ns#"
   xmlns:rdf="http://www.w3.org/1999/02/22-rdf-syntax-ns#"
   xmlns:svg="http://www.w3.org/2000/svg"
   xmlns="http://www.w3.org/2000/svg"
   xmlns:sodipodi="http://sodipodi.sourceforge.net/DTD/sodipodi-0.dtd"
   xmlns:inkscape="http://www.inkscape.org/namespaces/inkscape"
   width="990.125"
   height="787.5"
   id="svg2"
   version="1.1"
   inkscape:version="0.91 r13725"
   sodipodi:docname="frame.svg">
  <defs
     id="defs4" />
  <sodipodi:namedview
     id="base"
     pagecolor="#ffffff"
     bordercolor="#666666"
     borderopacity="1.0"
     inkscape:pageopacity="0.0"
     inkscape:pageshadow="2"
     inkscape:zoom="1.4473865"
     inkscape:cx="226.40296"
     inkscape:cy="316.56702"
     inkscape:document-units="in"
     inkscape:current-layer="layer1"
     showgrid="true"
     units="in"
     inkscape:window-width="1440"
     inkscape:window-height="838"
     inkscape:window-x="-8"
     inkscape:window-y="-8"
     inkscape:window-maximized="1"
     inkscape:snap-bbox="true"
     inkscape:bbox-nodes="true"
     inkscape:snap-bbox-edge-midpoints="true"
     inkscape:object-paths="true"
     inkscape:object-nodes="true"
     inkscape:snap-intersection-paths="true"
     inkscape:snap-smooth-nodes="true"
     inkscape:snap-midpoints="true"
     inkscape:snap-object-midpoints="true"
     inkscape:snap-center="true"
     inkscape:snap-page="false"
     inkscape:snap-bbox-midpoints="true"
     inkscape:bbox-paths="true"
     inkscape:snap-grids="false"
     inkscape:snap-to-guides="false"
     fit-margin-top="0"
     fit-margin-left="0"
     fit-margin-right="0"
     fit-margin-bottom="0">
    <inkscape:grid
       type="xygrid"
       id="grid2985"
       empspacing="5"
       visible="true"
       enabled="true"
       snapvisiblegridlinesonly="true"
       units="in"
       spacingx="0.01in"
       spacingy="0.01in" />
  </sodipodi:namedview>
  <metadata
     id="metadata7">
    <rdf:RDF>
      <cc:Work
         rdf:about="">
        <dc:format>image/svg+xml</dc:format>
        <dc:type
           rdf:resource="http://purl.org/dc/dcmitype/StillImage" />
        <dc:title />
      </cc:Work>
    </rdf:RDF>
  </metadata>
  <g
     inkscape:label="Layer 1"
     inkscape:groupmode="layer"
     id="layer1"
     transform="translate(101.3125,-264.85973)">
    <path
       style="fill:none;stroke:#000000;stroke-width:0.09008856;stroke-miterlimit:4;stroke-opacity:1;stroke-dasharray:none"
       d="m 0.0625,832.5625 -101.3125,365.5313 0,225 101.3125,196.8437 785.625,0 1.75,0 101.3125,-196.8437 0,-225 -101.3125,-365.5313 -1.75,0 -785.625,0 z"
       transform="translate(0,-567.64027)"
       id="rect2987"
       inkscape:connector-curvature="0" />
    <path
       transform="matrix(0.21346297,0,0,0.21327331,12.047855,838.22235)"
       style="fill:none;stroke:#000000;stroke-width:0.42180622;stroke-miterlimit:4;stroke-opacity:1"
       d="m 75.660425,898.57428 c 0,14.74229 -11.950989,26.69328 -26.693281,26.69328 -14.742292,0 -26.693281,-11.95099 -26.693281,-26.69328 0,-14.74229 11.950989,-26.69328 26.693281,-26.69328 14.742292,0 26.693281,11.95099 26.693281,26.69328 z"
       id="path3832"
       inkscape:connector-curvature="0" />
    <path
       transform="matrix(0.21346297,0,0,0.21327331,754.54786,95.722355)"
       style="fill:none;stroke:#000000;stroke-width:0.42180622;stroke-miterlimit:4;stroke-opacity:1"
       d="m 75.660425,898.57428 c 0,14.74229 -11.950989,26.69328 -26.693281,26.69328 -14.742292,0 -26.693281,-11.95099 -26.693281,-26.69328 0,-14.74229 11.950989,-26.69328 26.693281,-26.69328 14.742292,0 26.693281,11.95099 26.693281,26.69328 z"
       id="path3832-4"
       inkscape:connector-curvature="0" />
    <path
       transform="matrix(0.21346297,0,0,0.21327331,12.047855,95.722355)"
       style="fill:none;stroke:#000000;stroke-width:0.42180622;stroke-miterlimit:4;stroke-opacity:1"
       d="m 75.660425,898.57428 c 0,14.74229 -11.950989,26.69328 -26.693281,26.69328 -14.742292,0 -26.693281,-11.95099 -26.693281,-26.69328 0,-14.74229 11.950989,-26.69328 26.693281,-26.69328 14.742292,0 26.693281,11.95099 26.693281,26.69328 z"
       id="path3832-0"
       inkscape:connector-curvature="0" />
    <path
       transform="matrix(0.21346297,0,0,0.21327331,754.54786,838.22235)"
       style="fill:none;stroke:#000000;stroke-width:0.42180622;stroke-miterlimit:4;stroke-opacity:1"
       d="m 75.660425,898.57428 c 0,14.74229 -11.950989,26.69328 -26.693281,26.69328 -14.742292,0 -26.693281,-11.95099 -26.693281,-26.69328 0,-14.74229 11.950989,-26.69328 26.693281,-26.69328 14.742292,0 26.693281,11.95099 26.693281,26.69328 z"
       id="path3832-4-9"
       inkscape:connector-curvature="0" />
    <path
       inkscape:connector-curvature="0"
       id="path3832-1"
       d="m -50.551446,832.94426 c 0,3.14414 -2.551094,5.69297 -5.698027,5.69297 -3.146933,0 -5.698027,-2.54883 -5.698027,-5.69297 0,-3.14414 2.551094,-5.69296 5.698027,-5.69296 3.146933,0 5.698027,2.54882 5.698027,5.69296 z"
       style="fill:none;stroke:#000000;stroke-width:0.09;stroke-miterlimit:4;stroke-opacity:1" />
    <path
       inkscape:connector-curvature="0"
       id="path3832-1-7"
       d="m -50.551446,652.94426 c 0,3.14414 -2.551094,5.69297 -5.698027,5.69297 -3.146933,0 -5.698027,-2.54883 -5.698027,-5.69297 0,-3.14414 2.551094,-5.69296 5.698027,-5.69296 3.146933,0 5.698027,2.54882 5.698027,5.69296 z"
       style="fill:none;stroke:#000000;stroke-width:0.09;stroke-miterlimit:4;stroke-opacity:1" />
    <path
       inkscape:connector-curvature="0"
       id="path3832-1-0"
       d="m -45.062787,810.43973 c 0,6.17868 -5.00875,11.1875 -11.187356,11.1875 -6.178607,0 -11.187357,-5.00882 -11.187357,-11.1875 0,-6.17869 5.00875,-11.1875 11.187357,-11.1875 6.178606,0 11.187356,5.00881 11.187356,11.1875 z"
       style="fill:none;stroke:#000000;stroke-width:0.09020656;stroke-miterlimit:4;stroke-opacity:1" />
    <path
       inkscape:connector-curvature="0"
       id="path3832-1-0-9"
       d="m -45.062787,675.43973 c 0,6.17868 -5.00875,11.1875 -11.187356,11.1875 -6.178607,0 -11.187357,-5.00882 -11.187357,-11.1875 0,-6.17869 5.00875,-11.1875 11.187357,-11.1875 6.178606,0 11.187356,5.00881 11.187356,11.1875 z"
       style="fill:none;stroke:#000000;stroke-width:0.09020656;stroke-miterlimit:4;stroke-opacity:1" />
    <path
       inkscape:connector-curvature="0"
       id="path3832-1-5"
       d="m 849.44856,832.94426 c 0,3.14414 -2.55109,5.69297 -5.69803,5.69297 -3.14693,0 -5.69803,-2.54883 -5.69803,-5.69297 0,-3.14414 2.5511,-5.69296 5.69803,-5.69296 3.14694,0 5.69803,2.54882 5.69803,5.69296 z"
       style="fill:none;stroke:#000000;stroke-width:0.09;stroke-miterlimit:4;stroke-opacity:1" />
    <path
       inkscape:connector-curvature="0"
       id="path3832-1-7-7"
       d="m 849.44856,652.94426 c 0,3.14414 -2.55109,5.69297 -5.69803,5.69297 -3.14693,0 -5.69803,-2.54883 -5.69803,-5.69297 0,-3.14414 2.5511,-5.69296 5.69803,-5.69296 3.14694,0 5.69803,2.54882 5.69803,5.69296 z"
       style="fill:none;stroke:#000000;stroke-width:0.09;stroke-miterlimit:4;stroke-opacity:1" />
    <path
       inkscape:connector-curvature="0"
       id="path3832-1-0-1"
       d="m 854.93721,810.43973 c 0,6.17868 -5.00875,11.1875 -11.18736,11.1875 -6.1786,0 -11.18735,-5.00882 -11.18735,-11.1875 0,-6.17869 5.00875,-11.1875 11.18735,-11.1875 6.17861,0 11.18736,5.00881 11.18736,11.1875 z"
       style="fill:none;stroke:#000000;stroke-width:0.09020656;stroke-miterlimit:4;stroke-opacity:1" />
    <path
       inkscape:connector-curvature="0"
       id="path3832-1-0-9-1"
       d="m 854.93721,675.43973 c 0,6.17868 -5.00875,11.1875 -11.18736,11.1875 -6.1786,0 -11.18735,-5.00882 -11.18735,-11.1875 0,-6.17869 5.00875,-11.1875 11.18735,-11.1875 6.17861,0 11.18736,5.00881 11.18736,11.1875 z"
       style="fill:none;stroke:#000000;stroke-width:0.09020656;stroke-miterlimit:4;stroke-opacity:1" />
    <path
       style="fill:none;stroke:#000000;stroke-width:0.13580504;stroke-miterlimit:4;stroke-opacity:1"
       d="m 39.487904,304.25763 708.614196,0 0,708.61417 -708.614196,0 z"
       id="rect3926"
       inkscape:connector-curvature="0" />
    <path
       inkscape:connector-curvature="0"
       id="rect3014-7"
       d="m -72.028557,727.22368 31.432111,0 0,31.43211 -31.432111,0 z"
       style="fill:none;stroke:#000000;stroke-width:0.09;stroke-miterlimit:4;stroke-opacity:1;stroke-dasharray:none" />
    <path
       inkscape:connector-curvature="0"
       id="rect3014-7-0"
       d="m 827.97144,727.22368 31.43211,0 0,31.43211 -31.43211,0 z"
       style="fill:none;stroke:#000000;stroke-width:0.06788575;stroke-miterlimit:4;stroke-opacity:1" />
  </g>
</svg>
