<?xml version="1.0" encoding="UTF-8" standalone="no"?>
<!-- Created with Inkscape (http://www.inkscape.org/) -->

<svg
   xmlns:dc="http://purl.org/dc/elements/1.1/"
   xmlns:cc="http://creativecommons.org/ns#"
   xmlns:rdf="http://www.w3.org/1999/02/22-rdf-syntax-ns#"
   xmlns:svg="http://www.w3.org/2000/svg"
   xmlns="http://www.w3.org/2000/svg"
   xmlns:sodipodi="http://sodipodi.sourceforge.net/DTD/sodipodi-0.dtd"
   xmlns:inkscape="http://www.inkscape.org/namespaces/inkscape"
   width="787.5"
   height="787.46875"
   id="svg2"
   version="1.1"
   inkscape:version="0.48.2 r9819"
   sodipodi:docname="window.svg">
  <defs
     id="defs4" />
  <sodipodi:namedview
     id="base"
     pagecolor="#ffffff"
     bordercolor="#666666"
     borderopacity="1.0"
     inkscape:pageopacity="0.0"
     inkscape:pageshadow="2"
     inkscape:zoom="0.70710678"
     inkscape:cx="494.46239"
     inkscape:cy="329.21865"
     inkscape:document-units="in"
     inkscape:current-layer="layer1"
     showgrid="true"
     units="in"
     inkscape:window-width="1920"
     inkscape:window-height="1058"
     inkscape:window-x="1912"
     inkscape:window-y="-8"
     inkscape:window-maximized="1"
     inkscape:snap-bbox="true"
     inkscape:bbox-nodes="true"
     inkscape:snap-bbox-edge-midpoints="true"
     inkscape:object-paths="true"
     inkscape:object-nodes="true"
     inkscape:snap-intersection-paths="true"
     inkscape:snap-smooth-nodes="true"
     inkscape:snap-midpoints="true"
     inkscape:snap-object-midpoints="true"
     inkscape:snap-center="true"
     inkscape:snap-page="false"
     inkscape:snap-bbox-midpoints="true"
     inkscape:bbox-paths="true"
     inkscape:snap-grids="false"
     inkscape:snap-to-guides="false"
     fit-margin-top="0"
     fit-margin-left="0"
     fit-margin-right="0"
     fit-margin-bottom="0">
    <inkscape:grid
       type="xygrid"
       id="grid2985"
       empspacing="5"
       visible="true"
       enabled="true"
       snapvisiblegridlinesonly="true"
       units="in"
       spacingx="0.01in"
       spacingy="0.01in" />
  </sodipodi:namedview>
  <metadata
     id="metadata7">
    <rdf:RDF>
      <cc:Work
         rdf:about="">
        <dc:format>image/svg+xml</dc:format>
        <dc:type
           rdf:resource="http://purl.org/dc/dcmitype/StillImage" />
        <dc:title />
      </cc:Work>
    </rdf:RDF>
  </metadata>
  <g
     inkscape:label="Layer 1"
     inkscape:groupmode="layer"
     id="layer1"
     transform="translate(0,-264.875)">
    <path
       transform="matrix(0.21346297,0,0,0.21327331,12.047855,838.22235)"
       style="fill:none;stroke:#000000;stroke-width:0.42180622;stroke-miterlimit:4;stroke-opacity:1"
       d="m 75.660425,898.57428 c 0,14.74229 -11.950989,26.69328 -26.693281,26.69328 -14.742292,0 -26.693281,-11.95099 -26.693281,-26.69328 0,-14.74229 11.950989,-26.69328 26.693281,-26.69328 14.742292,0 26.693281,11.95099 26.693281,26.69328 z"
       id="path3832"
       inkscape:connector-curvature="0" />
    <path
       transform="matrix(0.21346297,0,0,0.21327331,754.54786,95.722376)"
       style="fill:none;stroke:#000000;stroke-width:0.42180622;stroke-miterlimit:4;stroke-opacity:1"
       d="m 75.660425,898.57428 c 0,14.74229 -11.950989,26.69328 -26.693281,26.69328 -14.742292,0 -26.693281,-11.95099 -26.693281,-26.69328 0,-14.74229 11.950989,-26.69328 26.693281,-26.69328 14.742292,0 26.693281,11.95099 26.693281,26.69328 z"
       id="path3832-4"
       inkscape:connector-curvature="0" />
    <path
       transform="matrix(0.21346297,0,0,0.21327331,12.047855,95.722376)"
       style="fill:none;stroke:#000000;stroke-width:0.42180622;stroke-miterlimit:4;stroke-opacity:1"
       d="m 75.660425,898.57428 c 0,14.74229 -11.950989,26.69328 -26.693281,26.69328 -14.742292,0 -26.693281,-11.95099 -26.693281,-26.69328 0,-14.74229 11.950989,-26.69328 26.693281,-26.69328 14.742292,0 26.693281,11.95099 26.693281,26.69328 z"
       id="path3832-0"
       inkscape:connector-curvature="0" />
    <path
       transform="matrix(0.21346297,0,0,0.21327331,754.54786,838.22235)"
       style="fill:none;stroke:#000000;stroke-width:0.42180622;stroke-miterlimit:4;stroke-opacity:1"
       d="m 75.660425,898.57428 c 0,14.74229 -11.950989,26.69328 -26.693281,26.69328 -14.742292,0 -26.693281,-11.95099 -26.693281,-26.69328 0,-14.74229 11.950989,-26.69328 26.693281,-26.69328 14.742292,0 26.693281,11.95099 26.693281,26.69328 z"
       id="path3832-4-9"
       inkscape:connector-curvature="0" />
    <path
       style="fill:none;stroke:#000000;stroke-width:0.11336695;stroke-miterlimit:4;stroke-opacity:1"
       d="m 0.87733585,264.94 785.74551415,0 c 0.45142,0 0.81483,0.36342 0.81483,0.81484 l 0,785.72756 c 0,0.4514 -0.36341,0.8148 -0.81483,0.8148 l -785.74551415,0 c -0.45141906,0 -0.81483585,-0.3634 -0.81483585,-0.8148 l 0,-785.72756 c 0,-0.45142 0.36341679,-0.81484 0.81483585,-0.81484 z"
       id="rect3972"
       inkscape:connector-curvature="0" />
  </g>
</svg>
